<?xml version="1.0" standalone="no"?><!DOCTYPE svg PUBLIC "-//W3C//DTD SVG 1.1//EN" "http://www.w3.org/Graphics/SVG/1.1/DTD/svg11.dtd"><svg t="1771730248117" class="icon" viewBox="0 0 1024 1024" version="1.1" xmlns="http://www.w3.org/2000/svg" p-id="9746" xmlns:xlink="http://www.w3.org/1999/xlink" width="200" height="200"><path d="M874.666667 512c0 200.298667-162.368 362.666667-362.666667 362.666667-56.512 0-109.994667-12.928-157.674667-35.989334a149.674667 149.674667 0 0 1-51.008 69.845334A446.037333 446.037333 0 0 0 512 960c247.424 0 448-200.576 448-448S759.424 64 512 64c-75.349333 0-146.368 18.602667-208.682667 51.477333a149.696 149.696 0 0 1 50.986667 69.845334A361.216 361.216 0 0 1 512 149.333333c200.298667 0 362.666667 162.368 362.666667 362.666667z" fill="#035f19" p-id="9747"></path><path d="M64 511.424V512.576a149.397333 149.397333 0 0 0 117.333333 145.322667v52.309333a85.354667 85.354667 0 1 0 64 0v-52.309333a149.461333 149.461333 0 0 0 90.709334-60.778667L490.666667 660.8V661.333333a85.333333 85.333333 0 1 0 24.362666-59.712l-154.602666-63.658666a150.357333 150.357333 0 0 0 0-51.925334l154.602666-63.658666A85.333333 85.333333 0 1 0 490.666667 362.666667v0.533333l-154.624 63.658667a149.461333 149.461333 0 0 0-90.709334-60.757334V313.813333a85.354667 85.354667 0 1 0-64 0v52.309334A149.397333 149.397333 0 0 0 64 511.424z" fill="#035f19" p-id="9748"></path></svg>