<?xml version="1.0" standalone="no"?>
<!DOCTYPE svg PUBLIC "-//W3C//DTD SVG 1.1//EN" "http://www.w3.org/Graphics/SVG/1.1/DTD/svg11.dtd">
<svg t="1770520798545" class="icon" viewBox="0 0 1024 1024" version="1.1"
    xmlns="http://www.w3.org/2000/svg" p-id="7340" xmlns:xlink="http://www.w3.org/1999/xlink"
    width="200" height="200">
    <path
        d="M823.3 657.6c-30-95.6-150.7-124.9-223.3-55.5-5 4.8-8.6 5.5-14.5 1.9-14.1-8.6-28.3-17-43-24.6-8.5-4.4-11.7-9.1-7-18.3 2.3-4.6 2.7-10.1 4-15.2 1.7-6.3 2.2-12.9 3.4-19.3 0-16.2 1-32.5-3.4-48.5-1.6-6.2-2.2-12.8-4.9-18.5-3.5-7.2-0.5-9.9 5.3-13.1 14.5-8 29-16 42.9-24.8 7.5-4.7 11.9-4.7 19 1.8 34.8 32.3 76 42.3 122.3 33 32-6.5 56.9-24.4 77.8-48.6 1.9-3.3 5-5.8 6.6-9.3 8-14.5 15.7-29.2 18.4-45.8 7-42.4 0.3-81.5-29-114.8-5.1-5.6-10.5-10.9-16-16l0.1 0.1c-11.5-8.6-23.9-15.8-36.6-22.4-27.1-11.9-55-14.1-83.7-6.6-12.3 5.1-25 9-36.7 15.5-13.4 6.4-24.2 15.9-33.5 27.3-7.3 8.2-12.4 17.9-18.2 27.1-1.3 3.1-1.8 6.7-4.5 9.1-1.2 4.1-3.7 7.9-3.2 12.5-1.2 3.4-0.7 7.4-3.6 10.2-5.9 21.2-4.9 42.5 0.6 63.5 1.8 6.8-0.4 9.4-5.5 12.3-15 8.5-30.2 16.8-44.7 26.1-7.4 4.8-11.3 3-16.9-3-20.8-22.4-45.6-38.7-75.3-47-4.7-1-9.5-2.6-14.2-2.9-8.5-0.5-10.5-4.8-10.2-12.5 0.5-11.6 0.1-23.2 0.1-34.8 0-27.2 0-27.2 26.6-35.2 2.8-0.9 5.5-1.8 8.3-2.7 2.6-2.2 6.7-1.8 9-4.8 7-3.3 13.2-7.6 18.2-13.6 13.7-13.2 25.2-28.1 34.2-44.8 6.6-10.5 8.6-22.5 11-34.4 1.5-19.5 1.8-38.8-3.1-58.2-15-58.5-68-100-130-101-59.8-1-114.8 39.5-131.2 96.4-7.1 21.1-6.9 42.6-3.5 64.3-0.1 5.2 1.4 10 3.5 14.7 4 12.6 9.6 24.4 16.9 35.5 20 29.9 48.5 47.4 82.3 57.6 2.9 21.3 0.6 42.7 1.2 64.1 0.1 4.6-2.9 5.9-7.1 7.1-8.6 2.5-17.6 3.7-25.6 8-22.6 9.8-43.4 22.3-60.9 39.9-20.5 20.7-35.6 44.6-43.5 72.7-11.4 33.2-10.7 66.5 0 99.8-1.3 4.4 2.3 7.3 3.7 10.8 22.9 58.1 65.3 94.2 125.8 108.7 7 1.7 8.3 4.7 8.3 10.7-0.2 15.8-1 31.7 0.2 47.5 0.9 11.9-4.2 15.6-14.6 19.1-44.2 15.1-73.6 45.2-87.1 90.3-7.6 25.7-7.8 51.3 0.2 76.9 8.5 27.7 23.9 50.6 47.3 68 19 14.1 40.5 22.4 63.5 27.1 14.7 1.7 29.3 1.9 43.9-0.8 62-11.5 106.2-64.9 110.8-123.3 4.4-55.5-29.8-113.9-81.8-134.1-6.9-2.7-14.3-4-21.3-6.7-4.6-1.8-5.4-4.1-5.4-8.2 0.1-19.4 0.2-38.9-0.1-58.3-0.1-4.7 2-6.7 6-7.8 14.2-1.6 27.4-6.8 40.4-12.4 24.1-10.5 43.1-27.8 61.3-46.2 13 2.8 22.9 11.4 33.8 18.1 6.7 4.1 13.2 8.5 20.1 12.2 5.4 2.9 6.9 5.9 5.2 12.4-5.4 20.9-6.4 42.2-0.5 63.3 2.9 2.8 2.5 6.8 3.6 10.3-0.5 4.5 2 8.3 3.2 12.4 2.8 2.4 3.2 6 4.5 9.1 5.9 9.1 10.8 18.9 18.3 26.9l8.7 9.3c10.1 8.3 20.2 16.5 31.9 22.6 27.7 14.5 56.7 18.1 87.4 12.4 76.6-14.3 130-91 103.8-174.6M694.8 262.4c34 0.6 61.6 28.6 61.3 62.3-0.4 34.4-27.9 62.1-61.5 62-34.9-0.1-63.3-28.8-62.9-63.4 0.4-33.2 29.7-61.4 63.1-60.9M312 162.9c-13-28.2-2.4-62.4 24.3-78.6 27.8-16.8 62.8-9.9 82.4 16.3 18.7 24.9 15.4 59.7-7.7 81.5-7 5.6-14.9 9.7-23 13.6-30.1 10.5-62.5-3.5-76-32.8m91.2 672.2c22.3 14.9 33 43.5 25.6 68.2-8 26.5-31.8 44.6-58.2 45.3-19.5 0.5-34.9-7.2-48.3-20.5-3.5-2.1-4.1-6.3-6.8-9-3.5-4-4.5-9.1-6.6-13.8-6.6-27-0.1-49.7 21.6-67.6 20.5-16.7 50.1-17.7 72.7-2.6m50.7-293.2c-17.1 46-65 70.2-111.2 56.2-5.2-2.6-11.2-3.1-16-6.6-43.3-23.2-60.4-74.9-39.3-119 19.8-41.5 72-61.8 113.9-44.3 46.4 19.3 69.3 68.8 52.6 113.7m289.8 195.2c-20.4 26.3-57.1 32.2-84.7 13.6-2.8-1.9-5.5-4-8.2-5.9-6.9-7.3-13.2-15-16-24.9-5.9-21.1-3.6-40.9 10.4-58.3 15.3-19.1 35.2-27 59.6-23 11.8 2.8 22.2 8.3 31.5 16.1 23.4 21.1 26.7 57.5 7.4 82.4"
        fill="#606060" p-id="7341"></path>
</svg>
